<svg width="512" height="512" viewBox="0 0 512 512" fill="none" xmlns="http://www.w3.org/2000/svg">
<path d="M38.566 118.35H139.291C164.791 118.35 184.766 125.292 199.216 139.175C213.666 153.058 220.891 171.617 220.891 194.85C220.891 212.7 216.499 226.725 207.716 236.925C199.216 247.125 188.166 254.35 174.566 258.6V259.875C191.283 263.842 205.024 271.35 215.791 282.4C226.558 293.167 231.941 308.892 231.941 329.575C231.941 341.475 229.958 352.667 225.991 363.15C222.024 373.633 216.358 382.7 208.991 390.35C201.908 398 193.408 404.092 183.491 408.625C173.858 412.875 163.374 415 152.041 415H38.566V118.35ZM141.416 383.975C157.849 383.975 170.741 380.292 180.091 372.925C189.441 365.558 194.116 354.225 194.116 338.925V321.5C194.116 306.483 189.441 295.292 180.091 287.925C170.741 280.275 157.849 276.45 141.416 276.45H74.266V383.975H141.416ZM135.466 247.125C150.483 247.125 162.241 243.867 170.741 237.35C179.241 230.55 183.491 220.35 183.491 206.75V190.175C183.491 176.575 179.241 166.375 170.741 159.575C162.241 152.775 150.483 149.375 135.466 149.375H74.266V247.125H135.466ZM294.25 415L270.875 118.35H302.75L315.075 288.35L321.45 378.025H324.85L363.95 195.7H403.9L443 378.025H446.4L452.775 288.35L465.1 118.35H496.125L472.75 415H421.325L385.2 237.775H381.8L345.675 415H294.25Z" fill="#1A936F"/>
</svg>
